<svg width="100" height="37" viewBox="0 0 100 37" fill="none" xmlns="http://www.w3.org/2000/svg">
<path d="M8 29.432C6.536 29.432 5.228 29.096 4.076 28.424C2.924 27.728 2.012 26.732 1.34 25.436C0.692 24.14 0.368 22.604 0.368 20.828C0.368 19.052 0.728 17.54 1.448 16.292C2.168 15.044 3.152 14.096 4.4 13.448C5.648 12.8 7.064 12.476 8.648 12.476C9.656 12.476 10.616 12.632 11.528 12.944C12.464 13.256 13.244 13.736 13.868 14.384V15.968V0.595999H18.872V29H13.832V25.94L14.228 27.02C13.412 27.692 12.5 28.268 11.492 28.748C10.484 29.204 9.32 29.432 8 29.432ZM9.656 25.184C10.328 25.184 10.916 25.1 11.42 24.932C11.948 24.74 12.404 24.476 12.788 24.14C13.196 23.78 13.544 23.336 13.832 22.808V18.956C13.64 18.428 13.34 17.984 12.932 17.624C12.548 17.24 12.068 16.952 11.492 16.76C10.94 16.544 10.328 16.436 9.656 16.436C8.912 16.436 8.216 16.628 7.568 17.012C6.944 17.372 6.44 17.876 6.056 18.524C5.672 19.172 5.48 19.916 5.48 20.756C5.48 21.596 5.672 22.352 6.056 23.024C6.44 23.696 6.944 24.224 7.568 24.608C8.216 24.992 8.912 25.184 9.656 25.184Z" fill="#FEDB62"/>
<path d="M22.8328 20.936C22.8328 19.328 23.2048 17.888 23.9488 16.616C24.7168 15.344 25.7848 14.348 27.1528 13.628C28.5208 12.884 30.0928 12.512 31.8688 12.512C33.6688 12.512 35.2288 12.884 36.5488 13.628C37.8688 14.348 38.8768 15.344 39.5728 16.616C40.2928 17.888 40.6528 19.328 40.6528 20.936C40.6528 22.544 40.2928 23.996 39.5728 25.292C38.8768 26.564 37.8688 27.572 36.5488 28.316C35.2288 29.06 33.6448 29.432 31.7968 29.432C30.0688 29.432 28.5208 29.096 27.1528 28.424C25.8088 27.752 24.7528 26.78 23.9848 25.508C23.2168 24.236 22.8328 22.712 22.8328 20.936ZM27.9088 20.972C27.9088 21.788 28.0768 22.532 28.4128 23.204C28.7488 23.852 29.2048 24.368 29.7808 24.752C30.3568 25.136 31.0048 25.328 31.7248 25.328C32.5168 25.328 33.2008 25.136 33.7768 24.752C34.3528 24.368 34.7968 23.852 35.1088 23.204C35.4208 22.532 35.5768 21.788 35.5768 20.972C35.5768 20.132 35.4208 19.388 35.1088 18.74C34.7968 18.092 34.3528 17.576 33.7768 17.192C33.2008 16.808 32.5168 16.616 31.7248 16.616C31.0048 16.616 30.3568 16.808 29.7808 17.192C29.2048 17.576 28.7488 18.092 28.4128 18.74C28.0768 19.388 27.9088 20.132 27.9088 20.972ZM44.6233 0.595999H49.6633V29H44.6233V0.595999ZM65.1857 29.432C63.8657 29.432 62.7497 29.216 61.8377 28.784C60.9497 28.328 60.1697 27.74 59.4977 27.02L59.8937 25.94V29H54.8537V0.595999H59.8577V15.968V14.348C60.4817 13.82 61.3097 13.376 62.3417 13.016C63.3737 12.656 64.5497 12.476 65.8697 12.476C67.2377 12.476 68.4857 12.8 69.6137 13.448C70.7417 14.096 71.6417 15.044 72.3137 16.292C73.0097 17.516 73.3577 19.016 73.3577 20.792C73.3577 22.568 72.9737 24.104 72.2057 25.4C71.4617 26.696 70.4657 27.692 69.2177 28.388C67.9697 29.084 66.6257 29.432 65.1857 29.432ZM64.0697 25.184C64.8137 25.184 65.4977 24.992 66.1217 24.608C66.7697 24.224 67.2857 23.696 67.6697 23.024C68.0537 22.352 68.2457 21.596 68.2457 20.756C68.2457 19.916 68.0537 19.172 67.6697 18.524C67.2857 17.876 66.7697 17.372 66.1217 17.012C65.4977 16.628 64.8137 16.436 64.0697 16.436C63.4217 16.436 62.8097 16.544 62.2337 16.76C61.6817 16.952 61.2017 17.24 60.7937 17.624C60.4097 17.984 60.1097 18.428 59.8937 18.956V22.808C60.1817 23.336 60.5177 23.78 60.9017 24.14C61.3097 24.476 61.7777 24.74 62.3057 24.932C62.8337 25.1 63.4217 25.184 64.0697 25.184ZM78.5786 36.56L89.0546 13.268H93.5906L83.4386 36.56H78.5786ZM82.7906 29.072L75.0866 13.268H80.7386L86.6786 26.552L82.7906 29.072ZM94.497 26.408C94.497 25.664 94.761 25.04 95.289 24.536C95.841 24.032 96.441 23.78 97.089 23.78C97.689 23.78 98.253 24.032 98.781 24.536C99.333 25.04 99.609 25.664 99.609 26.408C99.609 27.2 99.333 27.836 98.781 28.316C98.253 28.772 97.689 29 97.089 29C96.441 29 95.841 28.772 95.289 28.316C94.761 27.836 94.497 27.2 94.497 26.408Z" fill="white"/>
</svg>
